<svg width="990" height="415" xmlns="http://www.w3.org/2000/svg" xmlns:xlink="http://www.w3.org/1999/xlink" xml:space="preserve" overflow="hidden"><g transform="translate(-145 -95)"><path d="M14.3561 191.29C14.3561 191.473 14.3561 191.651 14.3561 191.834 14.3561 220.579 30.1038 248.3 57.4637 262.256 68.9577 268.118 81.2132 270.901 93.2915 270.901 122.036 270.901 149.751 255.153 163.713 227.793 169.575 216.299 172.358 204.044 172.358 191.966L172.358 191.71C172.358 191.71 172.581 191.296 172.581 191.296L173.231 191.651 172.489 191.651C172.575 179.52 175.411 167.231 181.292 155.698 195.517 127.82 223.756 111.776 253.04 111.776 265.341 111.776 277.833 114.612 289.544 120.586 317.402 134.797 333.445 163.004 333.465 192.268L331.975 192.268C331.975 192.268 331.975 191.867 331.975 191.867L333.465 191.867C333.465 192.058 333.465 192.241 333.465 192.425 333.465 221.17 349.213 248.891 376.573 262.847 388.067 268.709 400.322 271.485 412.401 271.485 441.145 271.485 468.866 255.738 482.822 228.378 488.684 216.884 491.467 204.628 491.467 192.55L491.467 192.294 491.69 191.88 492.34 192.235 491.599 192.235C491.684 180.104 494.52 167.816 500.401 156.282 514.626 128.404 542.865 112.361 572.149 112.361 584.45 112.361 596.942 115.19 608.653 121.163 636.511 135.375 652.548 163.582 652.574 192.845L651.084 192.845C651.084 192.845 651.084 191.861 651.084 191.861L652.574 191.861C652.574 192.051 652.574 192.228 652.574 192.412 652.574 221.157 668.322 248.878 695.682 262.834 707.182 268.695 719.431 271.472 731.51 271.472 760.255 271.472 787.976 255.724 801.931 228.365 804.701 222.936 806.579 217.297 807.767 213.03 808.358 210.897 808.778 209.098 809.047 207.838 809.185 207.208 809.277 206.716 809.342 206.374 809.375 206.204 809.395 206.079 809.414 205.993 809.428 205.908 809.434 205.869 809.434 205.869L809.434 205.869C810.169 201.32 810.386 197.302 810.386 194.079 810.386 193.344 810.373 192.655 810.353 192.012L811.843 191.972C811.863 192.635 811.876 193.338 811.876 194.086 811.876 197.375 811.659 201.471 810.904 206.118L810.904 206.118C810.898 206.164 808.922 217.94 803.257 229.047 789.032 256.926 760.793 272.969 731.51 272.969 719.208 272.969 706.716 270.133 695.006 264.166 667.127 249.948 651.084 221.702 651.084 192.419 651.084 192.235 651.084 192.044 651.084 191.861L652.574 191.861C652.574 191.861 652.574 192.852 652.574 192.852L651.084 192.852C651.058 164.127 635.317 136.445 607.977 122.496 596.476 116.634 584.227 113.851 572.149 113.851 543.404 113.851 515.683 129.598 501.727 156.958 495.951 168.282 493.167 180.34 493.089 192.241L493.089 192.432C493.089 192.432 492.865 192.839 492.865 192.839L492.216 192.484 492.957 192.484 492.957 192.55C492.957 204.851 490.128 217.343 484.155 229.054 469.93 256.932 441.697 272.975 412.407 272.975 400.106 272.975 387.614 270.14 375.903 264.173 348.025 249.954 331.982 221.715 331.982 192.425 331.982 192.241 331.982 192.051 331.982 191.867L333.472 191.867C333.472 191.867 333.472 192.274 333.472 192.274L331.982 192.274C331.955 163.549 316.214 135.861 288.874 121.912 277.38 116.05 265.124 113.273 253.046 113.267 224.301 113.267 196.58 129.014 182.625 156.374 176.848 167.698 174.065 179.756 173.986 191.657L173.986 191.847C173.986 191.847 173.763 192.254 173.763 192.254L173.113 191.893 173.855 191.893 173.855 191.959C173.855 204.261 171.026 216.752 165.052 228.463 150.834 256.341 122.588 272.385 93.3046 272.385 81.0032 272.385 68.5113 269.555 56.8007 263.582 28.9222 249.364 12.8791 221.124 12.8791 191.834 12.8791 191.651 12.8791 191.46 12.8791 191.276L14.3692 191.29Z" fill="#47474A" transform="matrix(1.00044 0 0 1 145.279 95)"/><path d="M969.327 192.254 969.189 192.012 969.097 191.847 969.097 191.657C969.012 179.756 966.235 167.698 960.452 156.374 946.496 129.008 918.775 113.267 890.03 113.267 877.952 113.267 865.697 116.043 854.203 121.912 844.376 126.92 837.057 133.622 834.897 135.743 832.724 137.869 827.807 142.904 823.153 149.869 818.499 156.834 814.114 165.728 812.966 175.562 812.677 178.049 812.441 180.859 812.283 183.045 812.204 184.141 812.145 185.08 812.099 185.743 812.06 186.406 812.04 186.793 812.04 186.793 811.797 191.283 811.771 194.454 811.679 197.348 811.581 200.237 811.41 202.856 810.878 206.171 810.222 210.221 809.323 213.451 808.679 215.505L807.261 215.065C807.885 213.057 808.771 209.893 809.408 205.934 809.933 202.692 810.097 200.164 810.196 197.302 810.294 194.44 810.314 191.244 810.563 186.721 810.563 186.714 810.904 180.439 811.495 175.391 812.683 165.229 817.18 156.138 821.919 149.048 826.659 141.959 831.648 136.852 833.86 134.686 836.098 132.493 843.496 125.712 853.533 120.592 865.244 114.619 877.729 111.79 890.037 111.79 919.32 111.79 947.56 127.833 961.784 155.711 967.666 167.245 970.502 179.533 970.587 191.657L969.845 191.657C969.845 191.657 970.495 191.303 970.495 191.303L970.626 191.552 969.32 192.268Z" fill="#47474A" transform="matrix(1.00044 0 0 1 145.279 95)"/><path d="M763.182 153.788C784.168 170.894 787.319 201.779 770.206 222.772 753.1 243.758 722.215 246.909 701.222 229.796 680.236 212.689 677.085 181.804 694.198 160.812 711.305 139.826 742.19 136.675 763.182 153.788" fill="#4F78BA" transform="matrix(1.00044 0 0 1 145.279 95)"/><path d="M732.258 134.272C715.545 134.272 698.971 141.493 687.614 155.429 677.906 167.343 673.416 182.316 674.971 197.604 676.527 212.893 683.945 226.658 695.859 236.366 707.773 246.075 722.74 250.571 738.034 249.009 753.323 247.453 767.088 240.036 776.797 228.128 786.505 216.214 790.995 201.241 789.439 185.953 787.884 170.665 780.466 156.899 768.558 147.191 757.905 138.506 745.045 134.279 732.265 134.279M732.1 250.486C718.637 250.486 705.692 245.898 695.117 237.279 682.96 227.373 675.392 213.326 673.803 197.723 672.215 182.119 676.796 166.838 686.702 154.681 707.156 129.592 744.205 125.817 769.294 146.272L769.294 146.272C781.444 156.177 789.013 170.225 790.601 185.828 792.19 201.425 787.608 216.713 777.702 228.87 767.797 241.027 753.749 248.589 738.146 250.184 736.118 250.388 734.096 250.493 732.087 250.493" fill="#4F78BA" transform="matrix(1.00044 0 0 1 145.279 95)"/><path d="M920.994 150.558C941.98 167.665 945.131 198.55 928.018 219.542 910.911 240.535 880.026 243.679 859.034 226.566 838.048 209.459 834.897 178.575 852.01 157.582 869.123 136.589 900.001 133.445 920.994 150.558" fill="#82A6E3" transform="matrix(1.00044 0 0 1 145.279 95)"/><path d="M890.07 131.043C873.357 131.043 856.782 138.263 845.426 152.199 835.717 164.113 831.228 179.087 832.783 194.375 834.339 209.663 841.757 223.428 853.671 233.137 865.585 242.845 880.552 247.342 895.846 245.78 911.134 244.224 924.9 236.806 934.608 224.899 944.317 212.991 948.807 198.011 947.251 182.723 945.695 167.435 938.278 153.67 926.37 143.961 915.716 135.277 902.857 131.049 890.076 131.049M889.906 247.257C876.442 247.257 863.497 242.668 852.922 234.049 840.772 224.144 833.197 210.096 831.615 194.493 830.026 178.89 834.608 163.608 844.514 151.451 864.968 126.362 902.017 122.588 927.105 143.042L927.105 143.042C939.262 152.948 946.831 166.995 948.419 182.598 950.008 198.202 945.426 213.483 935.521 225.64 925.615 237.797 911.568 245.366 895.964 246.955 893.936 247.158 891.914 247.263 889.906 247.263" fill="#82A6E3" transform="matrix(1.00044 0 0 1 145.279 95)"/><path d="M604.255 152.823C625.241 169.929 628.391 200.814 611.278 221.807 594.172 242.793 563.287 245.944 542.294 228.831 521.308 211.724 518.158 180.839 535.271 159.847 552.377 138.861 583.262 135.71 604.255 152.823" fill="#38599E" transform="matrix(1.00044 0 0 1 145.279 95)"/><path d="M573.33 133.307C556.618 133.307 540.043 140.528 528.687 154.464 518.978 166.378 514.488 181.351 516.044 196.639 517.6 211.928 525.017 225.693 536.925 235.401 548.832 245.11 563.806 249.607 579.1 248.044 594.388 246.489 608.154 239.071 617.862 227.163 627.571 215.249 632.061 200.276 630.505 184.988 628.949 169.7 621.532 155.934 609.624 146.226 598.97 137.541 586.111 133.314 573.33 133.314M573.166 249.521C559.703 249.521 546.758 244.933 536.183 236.314 524.026 226.408 516.464 212.361 514.869 196.758 513.28 181.154 517.862 165.873 527.768 153.716 548.222 128.627 585.271 124.853 610.366 145.307L610.366 145.307C622.523 155.212 630.092 169.26 631.68 184.863 633.269 200.466 628.687 215.748 618.781 227.905 608.876 240.062 594.828 247.624 579.225 249.219 577.197 249.423 575.175 249.528 573.166 249.528" fill="#38599E" transform="matrix(1.00044 0 0 1 145.279 95)"/><path d="M442.124 153.079C463.11 170.185 466.26 201.07 449.147 222.063 432.041 243.049 401.156 246.2 380.163 229.087 359.177 211.98 356.027 181.095 373.14 160.103 390.246 139.117 421.131 135.966 442.124 153.079" fill="#1C3D82" transform="matrix(1.00044 0 0 1 145.279 95)"/><path d="M411.199 133.57C394.487 133.57 377.912 140.797 366.556 154.727 356.847 166.641 352.357 181.614 353.913 196.902 355.469 212.19 362.886 225.955 374.8 235.664 386.715 245.373 401.681 249.869 416.976 248.307 432.264 246.751 446.029 239.333 455.738 227.426 465.446 215.518 469.936 200.539 468.381 185.25 466.825 169.962 459.407 156.197 447.5 146.488 436.846 137.804 423.987 133.576 411.206 133.576M411.042 249.784C397.578 249.784 384.634 245.195 374.059 236.576 361.908 226.671 354.34 212.623 352.751 197.02 351.162 181.417 355.744 166.135 365.65 153.978 386.104 128.89 423.153 125.115 448.248 145.569L448.248 145.569C460.405 155.475 467.974 169.522 469.562 185.126 471.151 200.729 466.569 216.011 456.663 228.168 446.758 240.325 432.71 247.893 417.107 249.482 415.079 249.685 413.057 249.79 411.048 249.79" fill="#1C3D82" transform="matrix(1.00044 0 0 1 145.279 95)"/><path d="M283.13 154.293C304.116 171.4 307.267 202.285 290.154 223.277 273.048 244.27 242.163 247.414 221.17 230.301 200.184 213.195 197.033 182.31 214.146 161.317 231.253 140.331 262.138 137.18 283.13 154.293" fill="#0D2961" transform="matrix(1.00044 0 0 1 145.279 95)"/><path d="M252.206 134.778C235.493 134.778 218.919 142.005 207.562 155.934 197.854 167.848 193.364 182.822 194.92 198.11 196.475 213.398 203.893 227.163 215.807 236.872 227.715 246.58 242.688 251.077 257.983 249.515 273.271 247.959 287.036 240.541 296.745 228.634 306.453 216.726 310.943 201.746 309.387 186.458 307.832 171.17 300.414 157.405 288.506 147.696 277.853 139.012 264.993 134.784 252.213 134.784M252.042 250.992C238.579 250.992 225.634 246.403 215.059 237.784 202.902 227.879 195.333 213.831 193.745 198.228 192.156 182.625 196.738 167.343 206.643 155.186 227.098 130.097 264.146 126.323 289.235 146.777L289.235 146.777C301.386 156.683 308.961 170.73 310.543 186.333 312.131 201.937 307.549 217.218 297.644 229.375 287.738 241.532 273.691 249.101 258.088 250.69 256.059 250.893 254.037 250.998 252.029 250.998" fill="#0D2961" transform="matrix(1.00044 0 0 1 145.279 95)"/><path d="M548.937 177.931 548.937 173.369C550.204 173.369 551.242 173.166 552.042 172.765 552.843 172.365 553.624 171.918 554.386 171.433 555.147 170.947 556.033 170.5 557.044 170.1 558.055 169.7 559.407 169.496 561.101 169.496 562.795 169.496 564.193 169.7 565.191 170.1 566.182 170.5 567.061 170.947 567.823 171.433 568.584 171.918 569.365 172.365 570.166 172.765 570.967 173.166 572.004 173.369 573.271 173.369 574.538 173.369 575.628 173.166 576.409 172.765 577.19 172.365 577.965 171.918 578.72 171.433 579.474 170.947 580.367 170.5 581.378 170.1 582.389 169.7 583.741 169.496 585.435 169.496 587.128 169.496 588.527 169.7 589.524 170.1 590.516 170.5 591.395 170.947 592.157 171.433 592.918 171.918 593.699 172.365 594.5 172.765 595.301 173.166 596.338 173.369 597.605 173.369L597.605 177.931C595.911 177.931 594.559 177.734 593.548 177.327 592.537 176.927 591.645 176.481 590.89 175.995 590.128 175.509 589.347 175.063 588.546 174.662 587.745 174.262 586.708 174.058 585.441 174.058 584.174 174.058 583.085 174.255 582.304 174.662 581.523 175.063 580.754 175.509 579.993 175.995 579.232 176.481 578.359 176.927 577.361 177.327 576.37 177.728 575.004 177.931 573.271 177.931 571.538 177.931 570.225 177.734 569.214 177.327 568.197 176.927 567.311 176.481 566.549 175.995 565.788 175.509 565.007 175.063 564.206 174.662 563.405 174.262 562.368 174.058 561.101 174.058 559.834 174.058 558.797 174.255 557.996 174.662 557.195 175.063 556.414 175.509 555.653 175.995 554.891 176.481 554.018 176.927 553.02 177.327 552.029 177.728 550.664 177.931 548.931 177.931M548.937 188.828 548.937 184.266C550.204 184.266 551.242 184.062 552.042 183.662 552.843 183.261 553.624 182.815 554.386 182.329 555.147 181.844 556.033 181.397 557.044 180.997 558.055 180.596 559.407 180.393 561.101 180.393 562.795 180.393 564.193 180.59 565.191 180.997 566.182 181.397 567.061 181.844 567.823 182.329 568.584 182.815 569.365 183.261 570.166 183.662 570.967 184.062 572.004 184.266 573.271 184.266 574.538 184.266 575.628 184.062 576.409 183.662 577.19 183.261 577.965 182.815 578.72 182.329 579.481 181.844 580.354 181.397 581.352 180.997 582.343 180.596 583.708 180.393 585.441 180.393 587.174 180.393 588.533 180.59 589.531 180.997 590.522 181.397 591.402 181.844 592.163 182.329 592.925 182.815 593.706 183.261 594.507 183.662 595.307 184.062 596.345 184.266 597.612 184.266L597.612 188.828C595.918 188.828 594.566 188.624 593.555 188.224 592.544 187.824 591.651 187.377 590.896 186.891 590.135 186.406 589.354 185.959 588.553 185.559 587.752 185.158 586.715 184.955 585.448 184.955 584.181 184.955 583.091 185.158 582.31 185.559 581.529 185.959 580.761 186.406 580 186.891 579.238 187.377 578.365 187.824 577.367 188.224 576.376 188.624 575.011 188.828 573.278 188.828 571.545 188.828 570.232 188.624 569.221 188.224 568.204 187.824 567.317 187.377 566.556 186.891 565.794 186.406 565.013 185.959 564.213 185.559 563.412 185.158 562.375 184.955 561.108 184.955 559.841 184.955 558.804 185.158 558.003 185.559 557.202 185.959 556.421 186.406 555.659 186.891 554.898 187.377 554.025 187.824 553.027 188.224 552.036 188.624 550.67 188.828 548.937 188.828M548.937 199.797 548.937 195.235C550.204 195.235 551.242 195.031 552.042 194.631 552.843 194.23 553.624 193.784 554.386 193.298 555.147 192.812 556.033 192.366 557.044 191.966 558.055 191.565 559.407 191.362 561.101 191.362 562.795 191.362 564.193 191.565 565.191 191.966 566.182 192.366 567.061 192.812 567.823 193.298 568.584 193.784 569.365 194.23 570.166 194.631 570.967 195.031 572.004 195.235 573.271 195.235 574.538 195.235 575.628 195.031 576.409 194.631 577.19 194.23 577.965 193.784 578.72 193.298 579.481 192.812 580.354 192.366 581.352 191.966 582.343 191.565 583.708 191.362 585.441 191.362 587.174 191.362 588.533 191.565 589.531 191.966 590.522 192.366 591.402 192.812 592.163 193.298 592.925 193.784 593.706 194.23 594.507 194.631 595.307 195.031 596.345 195.235 597.612 195.235L597.612 199.797C595.918 199.797 594.566 199.593 593.555 199.193 592.544 198.792 591.651 198.346 590.896 197.86 590.135 197.375 589.354 196.928 588.553 196.528 587.752 196.127 586.715 195.924 585.448 195.924 584.181 195.924 583.091 196.127 582.31 196.528 581.529 196.928 580.761 197.375 580 197.86 579.238 198.346 578.365 198.792 577.367 199.193 576.376 199.593 575.011 199.797 573.278 199.797 571.545 199.797 570.232 199.593 569.221 199.193 568.204 198.792 567.317 198.346 566.556 197.86 565.794 197.375 565.013 196.928 564.213 196.528 563.412 196.127 562.375 195.924 561.108 195.924 559.841 195.924 558.804 196.127 558.003 196.528 557.202 196.928 556.421 197.375 555.659 197.86 554.898 198.346 554.025 198.792 553.027 199.193 552.036 199.593 550.67 199.797 548.937 199.797M548.937 210.694 548.937 206.131C550.204 206.131 551.242 205.934 552.042 205.527 552.843 205.127 553.624 204.681 554.386 204.195 555.147 203.709 556.033 203.263 557.044 202.862 558.055 202.462 559.407 202.258 561.101 202.258 562.795 202.258 564.193 202.462 565.191 202.862 566.182 203.263 567.061 203.709 567.823 204.195 568.584 204.681 569.365 205.127 570.166 205.527 570.967 205.928 572.004 206.131 573.271 206.131 574.538 206.131 575.628 205.934 576.409 205.527 577.19 205.127 577.965 204.681 578.72 204.195 579.481 203.709 580.367 203.263 581.378 202.862 582.389 202.462 583.741 202.258 585.435 202.258 587.128 202.258 588.527 202.462 589.524 202.862 590.516 203.263 591.395 203.709 592.157 204.195 592.918 204.681 593.699 205.127 594.5 205.527 595.301 205.928 596.338 206.131 597.605 206.131L597.605 210.694C595.911 210.694 594.559 210.49 593.548 210.09 592.537 209.689 591.645 209.243 590.89 208.757 590.128 208.271 589.347 207.825 588.546 207.424 587.745 207.024 586.708 206.821 585.441 206.821 584.174 206.821 583.085 207.018 582.304 207.424 581.523 207.825 580.754 208.271 579.993 208.757 579.232 209.243 578.359 209.689 577.361 210.09 576.37 210.49 575.004 210.694 573.271 210.694 571.538 210.694 570.225 210.49 569.214 210.09 568.197 209.689 567.311 209.243 566.549 208.757 565.788 208.271 565.007 207.825 564.206 207.424 563.405 207.024 562.368 206.821 561.101 206.821 559.834 206.821 558.797 207.018 557.996 207.424 557.195 207.825 556.414 208.271 555.653 208.757 554.891 209.243 554.018 209.689 553.02 210.09 552.029 210.49 550.664 210.694 548.931 210.694" fill="#F5F7FF" transform="matrix(1.00044 0 0 1 145.279 95)"/><path d="M91.1121 133.051C74.3995 133.051 57.8247 140.272 46.4685 154.208 36.7599 166.122 32.27 181.095 33.8257 196.383 35.3814 211.672 42.7991 225.437 54.7067 235.145 66.6143 244.854 81.5874 249.351 96.8821 247.788 112.17 246.232 125.936 238.815 135.644 226.907 145.353 214.993 149.843 200.02 148.287 184.732 146.731 169.444 139.314 155.678 127.406 145.97 116.752 137.285 103.893 133.058 91.1121 133.058M90.948 249.272C77.4847 249.272 64.5399 244.683 53.9649 236.064 41.8079 226.159 34.2393 212.111 32.6507 196.508 31.0621 180.905 35.644 165.623 45.5495 153.466 66.0038 128.378 103.053 124.603 128.141 145.057L128.141 145.057C140.292 154.963 147.867 169.01 149.455 184.614 151.044 200.21 146.462 215.499 136.557 227.656 126.651 239.813 112.604 247.375 97.0003 248.97 94.9719 249.173 92.9501 249.278 90.9415 249.278" fill="#031F4A" transform="matrix(1.00044 0 0 1 145.279 95)"/><path d="M743.627 210.582 740.03 190.344C740.719 190.423 741.461 190.495 742.255 190.561 743.05 190.62 743.791 190.692 744.481 190.778L748.019 210.588 743.627 210.588ZM736.308 169.614 740.7 169.614 742.104 177.294C741.415 177.216 740.673 177.143 739.879 177.078 739.085 177.019 738.343 176.966 737.654 176.927L736.315 169.614ZM731.188 197.414 735.579 197.414 735.579 190.16 731.188 190.16 731.188 197.414ZM731.188 210.582 735.579 210.582 735.579 201.805 731.188 201.805 731.188 210.582ZM726.068 169.614 730.459 169.614 729.12 176.927C728.431 176.966 727.689 177.019 726.895 177.078 726.101 177.137 725.359 177.209 724.67 177.294L726.074 169.614ZM718.755 210.582 722.293 190.771C722.983 190.692 723.724 190.62 724.519 190.554 725.313 190.495 726.055 190.423 726.744 190.338L723.147 210.575 718.755 210.575ZM709.972 188.697 709.972 184.187C713.793 183.13 717.652 182.388 721.552 181.962 725.451 181.535 729.396 181.318 733.38 181.318 737.365 181.318 741.304 181.535 745.209 181.962 749.108 182.388 752.968 183.13 756.795 184.187L756.795 188.697C756.067 188.493 755.331 188.303 754.603 188.119 753.874 187.935 753.139 187.765 752.41 187.6L752.41 194.493 748.019 194.493 748.019 186.747C745.583 186.379 743.141 186.137 740.7 186.018 738.264 185.894 735.822 185.835 733.387 185.835 730.952 185.835 728.51 185.894 726.074 186.018 723.639 186.143 721.197 186.386 718.755 186.747L718.755 194.493 714.364 194.493 714.364 187.6C713.635 187.765 712.9 187.935 712.171 188.119 711.443 188.303 710.707 188.493 709.979 188.697" fill="#F5F7FF" transform="matrix(1.00044 0 0 1 145.279 95)"/><path d="M251.103 177.459 262.912 177.459 239.353 177.459 251.103 177.459ZM243.082 202.856 259.118 202.856C260.234 202.856 261.179 202.468 261.961 201.687 262.742 200.906 263.129 199.961 263.129 198.845L263.129 192.163 239.071 192.163 239.071 198.845C239.071 199.961 239.458 200.906 240.239 201.687 241.02 202.468 241.966 202.856 243.082 202.856M257.786 200.178C258.527 200.178 259.158 199.915 259.676 199.396 260.195 198.878 260.457 198.248 260.457 197.506 260.457 196.764 260.195 196.134 259.676 195.609 259.158 195.084 258.527 194.828 257.786 194.828 257.044 194.828 256.414 195.084 255.889 195.609 255.363 196.134 255.107 196.758 255.107 197.506 255.107 198.254 255.37 198.878 255.889 199.396 256.407 199.915 257.037 200.178 257.786 200.178M244.421 200.178C245.163 200.178 245.793 199.915 246.318 199.396 246.836 198.878 247.099 198.248 247.099 197.506 247.099 196.764 246.836 196.134 246.318 195.609 245.799 195.09 245.169 194.828 244.421 194.828 243.672 194.828 243.049 195.084 242.53 195.609 242.012 196.127 241.749 196.758 241.749 197.506 241.749 198.254 242.012 198.878 242.53 199.396 243.049 199.915 243.679 200.178 244.421 200.178M253.105 188.152 263.129 188.152 263.129 181.469 253.105 181.469 253.105 188.152ZM260.122 192.163 239.071 192.163 263.129 192.163 260.122 192.163ZM239.071 188.152 249.095 188.152 249.095 181.469 239.071 181.469 239.071 188.152ZM251.103 174.787C247.276 174.787 244.552 175.004 242.918 175.43 241.283 175.857 240.095 176.533 239.353 177.465L262.912 177.465C262.282 176.54 261.192 175.857 259.656 175.43 258.114 175.004 255.265 174.787 251.11 174.787M235.067 198.845 235.067 178.798C235.067 177.459 235.375 176.29 235.986 175.286 236.596 174.281 237.548 173.448 238.828 172.778 240.108 172.109 241.769 171.61 243.81 171.275 245.852 170.94 248.287 170.776 251.103 170.776 253.919 170.776 256.401 170.94 258.429 171.275 260.451 171.61 262.105 172.109 263.385 172.778 264.665 173.448 265.61 174.281 266.227 175.286 266.844 176.29 267.146 177.459 267.146 178.798L267.146 198.845C267.146 200.847 266.503 202.593 265.223 204.083 263.943 205.567 262.302 206.46 260.293 206.755L263.135 209.538 263.135 210.877 258.79 210.877 254.779 206.867 247.427 206.867 243.416 210.877 239.071 210.877 239.071 209.538 241.854 206.755C239.885 206.46 238.263 205.567 236.983 204.083 235.703 202.6 235.06 200.854 235.06 198.845" fill="#F5F7FF" transform="matrix(1.00044 0 0 1 145.279 95)"/><path d="M890.549 206.696C895.8 206.696 900.264 204.858 903.94 201.182 907.616 197.506 909.454 193.042 909.454 187.791 909.454 182.539 907.616 178.076 903.94 174.4 900.264 170.724 895.8 168.886 890.549 168.886 885.297 168.886 880.834 170.724 877.158 174.4 873.482 178.076 871.644 182.539 871.644 187.791 871.644 193.042 873.482 197.506 877.158 201.182 880.834 204.858 885.297 206.696 890.549 206.696M890.568 211.061C887.365 211.061 884.352 210.457 881.523 209.243 878.694 208.028 876.219 206.368 874.099 204.247 871.979 202.127 870.311 199.652 869.103 196.83 867.889 194.007 867.285 190.988 867.285 187.771 867.285 184.555 867.889 181.548 869.103 178.739 870.318 175.929 871.979 173.468 874.099 171.347 876.219 169.227 878.694 167.56 881.516 166.352 884.346 165.137 887.365 164.534 890.575 164.534 893.785 164.534 896.798 165.137 899.608 166.352 902.417 167.566 904.879 169.227 906.999 171.347 909.119 173.468 910.786 175.936 911.994 178.752 913.209 181.568 913.813 184.581 913.813 187.778 913.813 190.974 913.209 193.994 911.994 196.823 910.78 199.652 909.119 202.127 906.999 204.247 904.879 206.368 902.41 208.035 899.594 209.243 896.778 210.457 893.765 211.061 890.568 211.061M888.37 199.423 892.735 199.423 892.735 189.97 902.187 189.97 902.187 185.605 892.735 185.605 892.735 176.152 888.37 176.152 888.37 185.605 878.917 185.605 878.917 189.97 888.37 189.97 888.37 199.423Z" fill="#FFFFFF" transform="matrix(1.00044 0 0 1 145.279 95)"/><path d="M79.5721 238.237C53.2494 231.896 37.0488 205.409 43.3899 179.087 49.7309 152.764 76.2112 136.563 102.541 142.904 128.863 149.245 145.064 175.732 138.723 202.055 132.382 228.378 105.895 244.578 79.5721 238.237" fill="#031F4A" transform="matrix(1.00044 0 0 1 145.279 95)"/><path d="M80.6355 184.64 91.2565 181.817 101.878 184.64 101.878 177.833 80.6355 177.833 80.6355 184.64ZM91.2565 200.407C91.7357 200.407 92.1952 200.315 92.6416 200.132 93.0814 199.948 93.4884 199.692 93.856 199.357L98.6151 194.821 101.162 197.644C101.569 198.123 102.009 198.563 102.488 198.97 102.967 199.377 103.499 199.725 104.09 200.02L106.413 189.95 91.2565 185.913 76.0996 189.95 78.4234 200.02C79.0142 199.725 79.5459 199.377 80.0251 198.97 80.5043 198.563 80.9441 198.123 81.3511 197.644L83.898 194.821 88.6571 199.357C89.0247 199.692 89.4317 199.948 89.8715 200.132 90.3113 200.315 90.7773 200.407 91.2565 200.407M91.2565 204.392C90.2588 204.392 89.3135 204.215 88.4076 203.867 87.5018 203.519 86.6812 202.987 85.946 202.291L83.9571 200.414 82.2438 202.127C81.5086 202.862 80.6684 203.427 79.7297 203.814 78.791 204.201 77.8063 204.398 76.7692 204.398L75.3316 204.398 71.7935 189.018C71.6819 188.5 71.7672 188.014 72.0429 187.554 72.3186 187.095 72.719 186.786 73.231 186.642L76.6642 185.703 76.6642 177.846C76.6642 176.737 77.0515 175.798 77.826 175.023 78.6006 174.249 79.5393 173.861 80.6487 173.861L85.9592 173.861 85.9592 169.877 96.5802 169.877 96.5802 173.861 101.891 173.861C103 173.861 103.939 174.249 104.713 175.023 105.488 175.798 105.875 176.737 105.875 177.846L105.875 185.703 109.302 186.642C109.82 186.786 110.214 187.095 110.49 187.554 110.766 188.014 110.851 188.506 110.739 189.018L107.201 204.398 105.764 204.398C104.733 204.398 103.742 204.201 102.803 203.814 101.864 203.427 101.024 202.862 100.282 202.127L98.5691 200.414 96.5802 202.291C95.845 202.994 95.0244 203.519 94.1186 203.867 93.2127 204.215 92.2674 204.392 91.2697 204.392M76.6576 212.354 72.2333 212.354 72.2333 208.37 76.6576 208.37C78.0952 208.37 79.3686 208.048 80.4714 207.398 81.5808 206.755 82.7427 206.079 83.9571 205.376 85.2108 206.112 86.3727 206.794 87.4427 207.424 88.5127 208.055 89.7861 208.363 91.2631 208.363 92.7401 208.363 94.0135 208.048 95.0835 207.424 96.1535 206.794 97.3154 206.118 98.5691 205.376 99.7835 206.079 100.945 206.748 102.055 207.398 103.158 208.042 104.431 208.37 105.875 208.37L110.299 208.37 110.299 212.354 105.875 212.354C104.621 212.354 103.499 212.197 102.501 211.882 101.503 211.567 100.197 210.95 98.5757 210.031 96.9543 210.95 95.6415 211.573 94.6503 211.882 93.6525 212.197 92.53 212.354 91.2762 212.354 90.0225 212.354 88.9 212.197 87.9022 211.882 86.9044 211.567 85.5981 210.95 83.9768 210.031 82.3882 210.917 81.0819 211.527 80.0513 211.855 79.0207 212.19 77.8917 212.354 76.6773 212.354" fill="#F5F7FF" transform="matrix(1.00044 0 0 1 145.279 95)"/><path d="M421.531 214.133 415.617 204.93 407.733 204.93C406.821 204.93 406.046 204.608 405.403 203.972 404.766 203.335 404.445 202.56 404.445 201.641 404.445 200.722 404.766 199.954 405.403 199.311 406.04 198.674 406.821 198.353 407.733 198.353L414.744 198.353 421.538 187.837 425.483 187.837 422.194 198.353 427.892 198.353 430.741 194.408 434.686 194.408 432.054 201.635 434.686 208.862 430.741 208.862 427.892 204.917 422.634 204.917 425.483 214.12 421.538 214.12ZM400.5 195.734 404.825 185.218 399.403 185.218 396.554 189.163 392.609 189.163 395.242 181.935 392.609 174.708 396.554 174.708 399.403 178.653 404.281 178.653 400.5 169.45 404.445 169.45 411.291 178.653 419.562 178.653C420.475 178.653 421.249 178.975 421.892 179.612 422.529 180.248 422.851 181.023 422.851 181.942 422.851 182.861 422.529 183.629 421.892 184.272 421.256 184.916 420.475 185.231 419.562 185.231L412.276 185.231 404.445 195.747 400.5 195.747Z" fill="#F5F7FF" transform="matrix(1.00044 0 0 1 145.279 95)"/><path d="M93.3834 277.57C95.9237 277.57 97.9784 275.516 97.9784 272.975 97.9784 270.435 95.9237 268.38 93.3834 268.38 90.843 268.38 88.7884 270.435 88.7884 272.975 88.7884 275.516 90.843 277.57 93.3834 277.57" fill="#031F4A" transform="matrix(1.00044 0 0 1 145.279 95)"/><path d="M252.823 118.295C255.363 118.295 257.418 116.24 257.418 113.7 257.418 111.159 255.363 109.105 252.823 109.105 250.283 109.105 248.228 111.159 248.228 113.7 248.228 116.24 250.283 118.295 252.823 118.295" fill="#0D2961" transform="matrix(1.00044 0 0 1 145.279 95)"/><path d="M410.759 276.231C413.3 276.231 415.354 274.177 415.354 271.636 415.354 269.096 413.3 267.041 410.759 267.041 408.219 267.041 406.164 269.096 406.164 271.636 406.164 274.177 408.219 276.231 410.759 276.231" fill="#1C3D82" transform="matrix(1.00044 0 0 1 145.279 95)"/><path d="M573.718 118.019C576.258 118.019 578.313 115.964 578.313 113.424 578.313 110.884 576.258 108.829 573.718 108.829 571.177 108.829 569.123 110.884 569.123 113.424 569.123 115.964 571.177 118.019 573.718 118.019" fill="#38599E" transform="matrix(1.00044 0 0 1 145.279 95)"/><path d="M732.442 276.743C734.982 276.743 737.037 274.689 737.037 272.148 737.037 269.608 734.982 267.553 732.442 267.553 729.901 267.553 727.847 269.608 727.847 272.148 727.847 274.689 729.901 276.743 732.442 276.743" fill="#4F78BA" transform="matrix(1.00044 0 0 1 145.279 95)"/><path d="M889.689 116.378C892.229 116.378 894.284 114.323 894.284 111.783 894.284 109.243 892.229 107.188 889.689 107.188 887.149 107.188 885.094 109.243 885.094 111.783 885.094 114.323 887.149 116.378 889.689 116.378" fill="#82A6E3" transform="matrix(1.00044 0 0 1 145.279 95)"/></g></svg>